<?xml version="1.0" standalone="no"?>
<!DOCTYPE svg PUBLIC "-//W3C//DTD SVG 20010904//EN"
 "http://www.w3.org/TR/2001/REC-SVG-20010904/DTD/svg10.dtd">
<svg version="1.0" xmlns="http://www.w3.org/2000/svg"
 width="260.000000pt" height="260.000000pt" viewBox="0 0 260.000000 260.000000"
 preserveAspectRatio="xMidYMid meet">
<metadata>
Created by potrace 1.11, written by Peter Selinger 2001-2013
</metadata>
<g transform="translate(0.000000,260.000000) scale(0.100000,-0.100000)"
fill="#000000" stroke="none">
<path d="M430 1743 c-40 -25 -61 -60 -63 -107 -1 -38 12 -65 102 -222 57 -98
112 -195 123 -214 110 -193 184 -315 201 -330 27 -26 99 -36 138 -20 31 13 62
48 97 110 25 46 190 331 202 350 63 101 145 253 155 285 19 64 -5 119 -67 151
-41 21 -71 17 -207 -28 -118 -39 -133 -42 -236 -42 -103 1 -117 3 -220 40
-120 44 -186 51 -225 27z"/>
<path d="M1658 1743 c-35 -17 -42 -28 -183 -273 -65 -113 -150 -259 -189 -325
-64 -110 -70 -125 -70 -177 -1 -52 2 -61 30 -89 47 -47 99 -49 210 -10 211 75
293 77 497 12 70 -23 142 -41 158 -41 86 0 147 95 114 175 -20 50 -385 678
-407 702 -39 42 -105 52 -160 26z"/>
</g>
</svg>
